<?xml version="1.0" standalone="no"?><!DOCTYPE svg PUBLIC "-//W3C//DTD SVG 1.1//EN" "http://www.w3.org/Graphics/SVG/1.1/DTD/svg11.dtd"><svg t="1597387244543" class="icon" viewBox="0 0 1024 1024" version="1.1" xmlns="http://www.w3.org/2000/svg" p-id="2626" xmlns:xlink="http://www.w3.org/1999/xlink" width="200" height="200"><defs><style type="text/css"></style></defs><path d="M1024 700.9792V196.864A197.0176 197.0176 0 0 0 827.0336 0H196.864A196.9664 196.9664 0 0 0 0 196.864v630.272A196.9152 196.9152 0 0 0 196.864 1024h630.2208a197.0688 197.0688 0 0 0 193.8432-162.0992c-52.224-22.6304-278.528-120.32-396.4416-176.64-89.7024 108.6976-183.6544 173.9264-325.2736 173.9264-141.6704 0-236.1856-87.2448-224.8192-193.9968 7.4752-70.0416 55.5008-184.6784 264.2944-165.0176 110.08 10.3424 160.4096 30.8736 250.112 60.5184 23.1936-42.496 42.496-89.4464 57.1392-139.264h-397.824v-39.424H444.928V311.296H204.8v-43.4176h240.128V165.5808s2.2016-15.9744 19.8656-15.9744H563.2V267.776h256v43.4176h-256v70.8096h208.8448a805.9392 805.9392 0 0 1-84.8384 212.6336C747.9296 616.6016 1024 700.928 1024 700.928z m-740.5056 90.624c-149.6576 0-173.312-94.5152-165.376-134.0416 7.8848-39.2704 51.2-90.5728 134.4-90.5728 95.5904 0 181.248 24.576 284.0576 74.496-72.192 94.1056-160.9216 150.0672-253.0816 150.0672z" fill="#2483FE" p-id="2627"></path></svg>