<?xml version="1.0" standalone="no"?><!DOCTYPE svg PUBLIC "-//W3C//DTD SVG 1.1//EN" "http://www.w3.org/Graphics/SVG/1.1/DTD/svg11.dtd"><svg t="1597384602102" class="icon" viewBox="0 0 1024 1024" version="1.1" xmlns="http://www.w3.org/2000/svg" p-id="4558" xmlns:xlink="http://www.w3.org/1999/xlink" width="200" height="200"><defs><style type="text/css"></style></defs><path d="M4.96 512C4.96 231.968 232 4.96 512 4.96 792.032 4.96 1019.04 232 1019.04 512c0 280.032-227.008 507.04-507.04 507.04C231.968 1019.04 4.96 792.032 4.96 512z" fill="#1F4C7D" p-id="4559"></path><path d="M512.064 993.376a478.08 478.08 0 0 0 411.648-237.376v-0.672c-24.224-37.536-190.624-94.336-255.808-94.336-129.472 230.528-304.224 39.68-301.056 2.144-90.496-6.336-199.424 60.16-259.936 103.424A477.504 477.504 0 0 0 512 993.376z" fill="#2483FE" p-id="4560"></path><path d="M365.952 678.016c20.352 52.672 182.272 201.248 304.576-12.544h3.04c-22.976-21.824-40.736-58.048-33.92-123.904-61.44 96.096-178.336 101.792-238.432 2.496 4.384 29.024 2.24 74.624-35.264 133.856v0.096z" fill="#FEFFFE" p-id="4561"></path><path d="M397.728 550.784c5.44 19.264 145.824 150.4 273.024 118.208-37.248-45.824-24.032-117.44-21.728-160 13.184-28.992-247.424 16.032-251.296 41.792z" fill="#DBDCE3" p-id="4562"></path><path d="M676.64 398.048a310.912 310.912 0 0 1-21.184 111.68c70.496-20.128 87.104-178.592 21.184-111.68z m-311.904 0a310.88 310.88 0 0 0 21.184 111.68c-70.464-20.128-87.104-178.56-21.184-111.68z" fill="#FEFFFE" p-id="4563"></path><path d="M643.2 295.296c-138.624 31.104-195.744-32.16-224.064-51.456-45.28 36.192-33.984 119.808-48.512 135.104a97.056 97.056 0 0 1-6.88-9.856c-12.672 345.056 318.72 321.664 315.648 18.304-29.856-45.888-24.512-46.912-36.16-92.096z" fill="#FEFFFE" p-id="4564"></path><path d="M419.008 249.376c28.32 19.264 85.504 82.56 224.096 51.488 11.84 46.08 5.92 46.08 37.984 94.88 23.456 8.032 91.424-222.752-107.584-254.176-232.96-36.16-269.12 179.616-209.28 253.6 14.56-15.232 9.472-109.6 54.784-145.792z" fill="#2483FE" p-id="4565"></path></svg>