<?xml version="1.0" standalone="no"?><!DOCTYPE svg PUBLIC "-//W3C//DTD SVG 1.1//EN" "http://www.w3.org/Graphics/SVG/1.1/DTD/svg11.dtd"><svg t="1597387196388" class="icon" viewBox="0 0 1024 1024" version="1.1" xmlns="http://www.w3.org/2000/svg" p-id="1831" xmlns:xlink="http://www.w3.org/1999/xlink" width="200" height="200"><defs><style type="text/css"></style></defs><path d="M512 163.84c192 0 348.16 156.16 348.16 348.16 0 192-156.16 348.16-348.16 348.16C320 860.16 163.84 704 163.84 512 163.84 320 320 163.84 512 163.84M512 0C229.376 0 0 229.376 0 512s229.376 512 512 512 512-229.376 512-512-229.376-512-512-512z" fill="#ACCAFB" p-id="1832"></path><path d="M320 512a192 192 0 1 0 384 0 192 192 0 1 0-384 0z" fill="#307AF5" p-id="1833"></path></svg>