<?xml version="1.0" encoding="UTF-8"?>
<svg width="15px" height="19px" viewBox="0 0 15 19" version="1.1" xmlns="http://www.w3.org/2000/svg" xmlns:xlink="http://www.w3.org/1999/xlink">
    <title>icon_fenxiang</title>
    <g id="改版" stroke="none" stroke-width="1" fill="none" fill-rule="evenodd">
        <g id="新币投-弹窗成功样式" transform="translate(-93.000000, -629.000000)">
            <g id="编组-31备份" transform="translate(27.000000, 516.000000)">
                <g id="icon_fenxiang" transform="translate(66.000000, 113.000000)">
                    <path d="M6.65,1.30227701 L7.95,1.30227701 L7.95,10.652277 C7.95,11.0112621 7.65898509,11.302277 7.3,11.302277 C6.94101491,11.302277 6.65,11.0112621 6.65,10.652277 L6.65,1.30227701 L6.65,1.30227701 Z" id="矩形" fill="#2483FE"></path>
                    <path d="M12.65,5.65227701 C13.5612698,5.65227701 14.3,6.39100717 14.3,7.30227701 L14.3,7.30227701 L14.3,17.302277 C14.3,18.2135468 13.5612698,18.952277 12.65,18.952277 L12.65,18.952277 L1.65,18.952277 C0.738730163,18.952277 0,18.2135468 0,17.302277 L0,17.302277 L0,7.30227701 C0,6.39100717 0.738730163,5.65227701 1.65,5.65227701 L1.65,5.65227701 L4.649,5.65227701 L4.649,6.95127701 L1.65,6.95227701 C1.4808628,6.95227701 1.33974695,7.0722507 1.30711076,7.2317398 L1.3,7.30227701 L1.3,17.302277 C1.3,17.4955767 1.45670034,17.652277 1.65,17.652277 L1.65,17.652277 L12.65,17.652277 C12.8432997,17.652277 13,17.4955767 13,17.302277 L13,17.302277 L13,7.30227701 C13,7.10897734 12.8432997,6.95227701 12.65,6.95227701 L12.65,6.95227701 L9.649,6.95127701 L9.649,5.65227701 Z" id="形状结合" fill="#2483FE" fill-rule="nonzero"></path>
                    <path d="M3.95978649,2.95565034 L6.6231692,0.622028268 C7.02170658,0.272834883 7.62343967,0.295130499 7.99504289,0.672859391 L10.238881,2.95368598 C10.4906383,3.20959333 10.487274,3.62113681 10.2313666,3.87289408 C9.97547087,4.12463992 9.56394606,4.12127576 9.31220022,3.86538003 C9.31219333,3.86537301 9.31218643,3.865366 9.31217953,3.86535899 L7.267,1.78627701 L7.267,1.78627701 L4.81649564,3.93341977 C4.54649567,4.16999494 4.13583538,4.14289879 3.89926021,3.87289882 C3.89925882,3.87289724 3.89925744,3.87289566 3.89925606,3.87289408 C3.66268121,3.6028892 3.68978161,3.19222519 3.95978649,2.95565034 Z" id="路径-7" fill="#007AFF" fill-rule="nonzero"></path>
                </g>
            </g>
        </g>
    </g>
</svg>