<?xml version="1.0" standalone="no"?><!DOCTYPE svg PUBLIC "-//W3C//DTD SVG 1.1//EN" "http://www.w3.org/Graphics/SVG/1.1/DTD/svg11.dtd"><svg t="1597387230930" class="icon" viewBox="0 0 1024 1024" version="1.1" xmlns="http://www.w3.org/2000/svg" p-id="2362" xmlns:xlink="http://www.w3.org/1999/xlink" width="200" height="200"><defs><style type="text/css"></style></defs><path d="M1023.8976 512c5.12 317.7984-194.0992 516.8128-511.8976 511.8976C194.2016 1028.8128-4.8128 829.7984 0.1024 512-4.8128 194.2016 194.2016-4.8128 512 0.1024 829.7984-4.8128 1028.8128 194.2016 1023.8976 512z" fill="#6DADFF" p-id="2363"></path><path d="M1022.464 566.6816C1006.8992 340.3776 852.3264 201.1648 614.4 204.8 360.2944 200.7552 200.704 360.2944 204.8 614.4c-3.8912 237.9264 135.5776 392.4992 361.6256 408.064 268.032-16.384 439.6032-187.9552 455.9872-455.7824z" fill="#509CFF" p-id="2364"></path><path d="M1015.5008 629.9648C985.8048 491.52 876.544 407.1424 716.8 409.6 526.1312 406.528 406.528 526.1312 409.6 716.8c-2.4576 159.6928 81.92 269.0048 220.16 298.7008 211.0976-34.4064 351.3344-174.6432 385.7408-385.536z" fill="#398FFF" p-id="2365"></path><path d="M997.6832 705.6896C964.7104 646.7584 902.144 613.1712 819.2 614.4c-127.1808-2.048-206.848 77.568-204.8 204.7488-1.3824 82.944 32.4096 145.5616 91.136 178.5344a431.2576 431.2576 0 0 0 292.1984-291.9936z" fill="#2483FE" p-id="2366"></path><path d="M256 266.24h512c40.9088 0 61.3888 20.48 61.3888 61.44v368.64c0 40.96-20.48 61.44-61.44 61.44H256.0512c-40.96 0-61.44-20.48-61.44-61.44V327.68c0-40.96 20.48-61.44 61.44-61.44z" fill="#E4F0FF" p-id="2367"></path><path d="M266.24 481.28a112.64 112.64 0 1 0 225.28 0 112.64 112.64 0 0 0-225.28 0zM256 757.76a122.88 122.88 0 1 1 245.76 0H256zM593.92 440.32h143.36c20.48 0 30.72 10.24 30.72 30.72 0 20.48-10.24 30.72-30.72 30.72h-143.36c-20.48 0-30.72-10.24-30.72-30.72 0-20.48 10.24-30.72 30.72-30.72zM593.92 563.2h143.36c20.48 0 30.72 10.24 30.72 30.72 0 20.48-10.24 30.72-30.72 30.72h-143.36c-20.48 0-30.72-10.24-30.72-30.72 0-20.48 10.24-30.72 30.72-30.72z" fill="#253B5B" p-id="2368"></path></svg>