<?xml version="1.0" standalone="no"?><!DOCTYPE svg PUBLIC "-//W3C//DTD SVG 1.1//EN" "http://www.w3.org/Graphics/SVG/1.1/DTD/svg11.dtd"><svg t="1597384661569" class="icon" viewBox="0 0 1177 1024" version="1.1" xmlns="http://www.w3.org/2000/svg" p-id="4692" xmlns:xlink="http://www.w3.org/1999/xlink" width="229.8828125" height="200"><defs><style type="text/css"></style></defs><path d="M428.30843 646.147019a37.611314 37.611314 0 0 1-17.705462 4.042577 38.685923 38.685923 0 0 1-34.131627-20.110539l-2.814452-5.321873-107.716756-231.0921c-1.279296-2.76328-1.279296-5.373045-1.279296-8.085153 0-10.74609 8.187497-18.831243 19.087102-18.831243 4.093748 0 8.187497 1.330468 12.281245 4.042577l126.85503 88.680825c9.466793 5.321873 20.41757 9.313278 32.698815 9.313278 6.857029 0 13.560542-1.279296 20.417571-3.991405L1070.822248 204.175703C964.384788 80.646844 788.507121 0 589.295088 0 264.609665 0 0 216.303433 0 483.471691c0 145.021038 79.111689 276.686223 203.152266 365.367048 9.517965 6.754685 16.374994 18.780071 16.374994 30.856629a36.434361 36.434361 0 0 1-2.76328 12.076557c-9.466793 36.229674-25.944131 95.43551-25.944131 98.045276a48.613263 48.613263 0 0 0-2.814452 14.839838c0 10.74609 8.187497 18.780071 19.138274 18.780071 4.093748 0 8.187497-1.279296 10.950777-4.042577l128.185498-73.840987c9.466793-5.321873 20.41757-9.36445 31.368347-9.36445 5.373045 0 12.281245 1.279296 17.654291 2.712108 59.973415 17.398431 125.524561 26.916396 192.406176 26.916396C912.291839 965.8176 1176.952676 749.514167 1176.952676 482.294738c0-80.595672-24.562491-157.097596-66.830443-224.337415L432.351007 643.434911l-4.093748 2.712108z" fill="#09BB07" p-id="4693"></path></svg>