<?xml version="1.0" encoding="UTF-8"?>
<svg width="13px" height="13px" viewBox="0 0 13 13" version="1.1" xmlns="http://www.w3.org/2000/svg" xmlns:xlink="http://www.w3.org/1999/xlink">
    <title>问号</title>
    <g id="改版" stroke="none" stroke-width="1" fill="none" fill-rule="evenodd">
        <g id="支付系统弹窗" transform="translate(-172.000000, -501.000000)" fill="#2483FE" fill-rule="nonzero">
            <g id="问号" transform="translate(172.000000, 501.000000)">
                <path d="M6.50000832,0.24375104 C3.08978951,0.24375104 0.24375104,3.08978951 0.24375104,6.50000832 C0.24375104,9.91720956 3.08978951,12.7450937 6.50000832,12.7562905 C9.90184822,12.766041 12.7674375,9.90184822 12.7562982,6.50000832 C12.7450937,3.08978951 9.91720956,0.24375104 6.50000832,0.24375104 Z M6.50000832,11.9225846 C3.54504394,11.9127881 1.07745318,9.46195513 1.07745318,6.50000832 C1.07745318,3.54364746 3.54364746,1.07745318 6.50000832,1.07745318 C9.46195513,1.07745318 11.9127881,3.54364746 11.9225846,6.50000832 C11.9309424,9.44799027 9.44799027,11.9309424 6.50000832,11.9225846 Z M8.277735,3.27831512 C7.83365245,2.87892012 7.24573184,2.67642965 6.50559426,2.67642965 C5.80735126,2.67642965 5.24596389,2.86495526 4.82003566,3.23781702 C4.3969004,3.61486824 4.13994698,4.15251535 4.05476133,4.85913727 L5.00856127,4.97085615 C5.09235043,4.44298444 5.26411821,4.05895079 5.53084704,3.81037628 C5.79478289,3.56180178 6.12714656,3.43891101 6.52095561,3.43891101 C6.93152249,3.43891101 7.27645454,3.57716312 7.55854471,3.84947789 C7.84063488,4.12179266 7.98167997,4.44019147 7.98167997,4.80048486 C7.98167997,4.99878587 7.93140647,5.18451851 7.83784191,5.35209683 C7.74148437,5.51967515 7.53201147,5.74730237 7.21081969,6.02939254 C6.88962791,6.31427568 6.66758664,6.52933453 6.54469587,6.67736204 C6.37711755,6.881249 6.25422678,7.08234298 6.17881654,7.28064399 C6.07687306,7.54457985 6.02520308,7.86158217 6.02520308,8.22466853 C6.02520308,8.2875104 6.02799605,8.37828199 6.03078902,8.50396573 L6.92174709,8.50396573 C6.93012601,8.13250045 6.95246978,7.86297866 6.99995031,7.69819331 C7.04463786,7.53340796 7.11446216,7.38677693 7.20663024,7.2596967 C7.29740183,7.13121999 7.49709932,6.93571195 7.80013679,6.66619015 C8.24980528,6.26679516 8.55284274,5.92884555 8.70785269,5.64954835 C8.86146615,5.37304412 8.94106585,5.06721368 8.94106585,4.73764299 C8.93966936,4.17066967 8.72042106,3.68189957 8.277735,3.27831512 Z M6.49721535,9.19243333 C6.183006,9.19243333 5.92744906,9.44659378 5.92744906,9.76219962 C5.92744906,10.076409 6.18160951,10.3319659 6.49721535,10.3319659 C6.8114247,10.3319659 7.06698164,10.0778055 7.06698164,9.76219962 C7.06558515,9.44799027 6.8114247,9.19243333 6.49721535,9.19243333 L6.49721535,9.19243333 Z" id="形状"></path>
            </g>
        </g>
    </g>
</svg>