<svg width="20" height="20" viewBox="0 0 20 20" fill="none" xmlns="http://www.w3.org/2000/svg">
<path d="M5.06101 16.6999L5.37406 16.8564C6.67841 17.639 8.13927 18.0042 9.60014 18.0042C14.1914 18.0042 17.948 14.2477 17.948 9.65642C17.948 7.46512 17.061 5.32598 15.4958 3.76077C13.9306 2.19555 11.8436 1.30859 9.60014 1.30859C5.00884 1.30859 1.25232 5.06512 1.30449 9.70859C1.30449 11.2738 1.77406 12.7869 2.55667 14.0912L2.76536 14.4042L1.93058 17.4825L5.06101 16.6999Z" fill="#00E676"/>
<path d="M16.3826 2.92628C14.6087 1.10019 12.1565 0.108887 9.65217 0.108887C4.33043 0.108887 0.0521739 4.43932 0.104348 9.70889C0.104348 11.3785 0.573913 12.9958 1.35652 14.4567L0 19.4132L5.06087 18.1089C6.46957 18.8915 8.03478 19.2567 9.6 19.2567C14.8696 19.2567 19.1478 14.9263 19.1478 9.65671C19.1478 7.10019 18.1565 4.70019 16.3826 2.92628ZM9.65217 17.6393C8.24348 17.6393 6.83478 17.2741 5.63478 16.5437L5.32174 16.3871L2.29565 17.1698L3.07826 14.1958L2.86957 13.8828C0.573913 10.1785 1.66957 5.2741 5.42609 2.97845C9.18261 0.6828 14.0348 1.77845 16.3304 5.53497C18.6261 9.2915 17.5304 14.1437 13.7739 16.4393C12.5739 17.2219 11.113 17.6393 9.65217 17.6393ZM14.2435 11.848L13.6696 11.5871C13.6696 11.5871 12.8348 11.2219 12.313 10.9611C12.2609 10.9611 12.2087 10.9089 12.1565 10.9089C12 10.9089 11.8957 10.9611 11.7913 11.0132C11.7913 11.0132 11.7391 11.0654 11.0087 11.9002C10.9565 12.0045 10.8522 12.0567 10.7478 12.0567H10.6957C10.6435 12.0567 10.5391 12.0045 10.487 11.9524L10.2261 11.848C9.65217 11.5871 9.13044 11.2741 8.71304 10.8567C8.6087 10.7524 8.45217 10.648 8.34783 10.5437C7.98261 10.1785 7.61739 9.76106 7.35652 9.2915L7.30435 9.18715C7.25217 9.13497 7.25217 9.0828 7.2 8.97845C7.2 8.8741 7.2 8.76976 7.25217 8.71758C7.25217 8.71758 7.46087 8.45671 7.61739 8.30019C7.72174 8.19584 7.77391 8.03932 7.87826 7.93497C7.98261 7.77845 8.03478 7.56976 7.98261 7.41323C7.93043 7.15236 7.30435 5.74367 7.14783 5.43063C7.04348 5.2741 6.93913 5.22193 6.78261 5.16976H6.62609C6.52174 5.16976 6.36522 5.16976 6.2087 5.16976C6.10435 5.16976 6 5.22193 5.89565 5.22193L5.84348 5.2741C5.73913 5.32628 5.63478 5.43063 5.53043 5.4828C5.42609 5.58715 5.37391 5.6915 5.26957 5.79584C4.90435 6.26541 4.69565 6.83932 4.69565 7.41323C4.69565 7.83063 4.8 8.24802 4.95652 8.61323L5.0087 8.76976C5.47826 9.76106 6.10435 10.648 6.93913 11.4306L7.14783 11.6393C7.30435 11.7958 7.46087 11.9002 7.56522 12.0567C8.66087 12.9958 9.91304 13.6741 11.3217 14.0393C11.4783 14.0915 11.687 14.0915 11.8435 14.1437C12 14.1437 12.2087 14.1437 12.3652 14.1437C12.6261 14.1437 12.9391 14.0393 13.1478 13.935C13.3043 13.8306 13.4087 13.8306 13.513 13.7263L13.6174 13.6219C13.7217 13.5176 13.8261 13.4654 13.9304 13.3611C14.0348 13.2567 14.1391 13.1524 14.1913 13.048C14.2957 12.8393 14.3478 12.5785 14.4 12.3176C14.4 12.2132 14.4 12.0567 14.4 11.9524C14.4 11.9524 14.3478 11.9002 14.2435 11.848Z" fill="white"/>
</svg>
