<?xml version="1.0" standalone="no"?><!DOCTYPE svg PUBLIC "-//W3C//DTD SVG 1.1//EN" "http://www.w3.org/Graphics/SVG/1.1/DTD/svg11.dtd"><svg t="1597386899502" class="icon" viewBox="0 0 1638 1024" version="1.1" xmlns="http://www.w3.org/2000/svg" p-id="7165" xmlns:xlink="http://www.w3.org/1999/xlink" width="319.921875" height="200"><defs><style type="text/css"></style></defs><path d="M315.525281 1.597078C266.862178 7.603183 218.062572 47.120626 202.160044 92.712425 191.512857 121.104923 0.955517 925.991282 0.136502 940.597038c-1.842782 42.179239 23.000653 73.02878 63.746618 80.809417 15.015263 3.41256 498.916246 3.41256 514.818774 0 46.069558-8.599651 89.54557-43.885519 105.448099-86.883773 6.210859-16.243785 202.910807-836.691417 202.910807-850.409908 2.730048-38.698428-21.294373-70.503486-59.378541-81.696682-8.872656-1.70628-491.74987-3.41256-512.156978-0.819014z" fill="#E60012" p-id="7166"></path><path d="M724.145194 1.597078c-48.731354 6.006105-97.462708 45.523548-113.433489 91.115347-9.759921 28.392498-201.136276 833.278857-201.136275 847.884613-1.774531 42.179239 23.068904 73.02878 63.814868 80.809417 15.015263 3.41256 498.916246 3.41256 514.818775 0 46.069558-8.599651 89.477318-43.885519 105.448098-86.883773 6.210859-16.243785 202.910807-836.691417 202.910807-850.409908 2.661797-38.698428-21.294373-70.503486-59.378541-81.696682-9.69167-1.70628-492.637136-3.41256-512.975992-0.819014h-0.068251z" fill="#00508E" p-id="7167"></path><path d="M1196.784729 2.347841c-47.91234 6.006105-95.892931 45.523548-111.522455 91.115347-9.623419 28.324247-197.92847 832.596345-197.92847 847.202101-1.70628 42.110988 22.659397 73.02878 62.791101 80.741166 14.81051 3.41256 368.692963 3.41256 384.390738 0 45.318794-8.599651 88.044043-43.817268 103.741819-86.747271 6.142608-16.380287 199.566498-836.077156 199.566498-849.795646 2.593545-38.698428-20.884866-70.503486-58.423024-81.628431-8.667902-2.525294-406.094619-4.299825-426.160471-1.774531h43.544264v0.887265z" fill="#00908C" p-id="7168"></path><path d="M247.410587 276.171641a54.259701 54.259701 0 0 1-2.593546 10.988443c-20.475359 66.067158-40.814215 155.066718-38.22067 166.055161 7.166376 33.033579 57.672261 30.508285 75.417573-4.231575 5.323593-9.282163 43.407761-164.417132 43.40776-175.405574 0-0.819014 60.265806 0 60.265807 0.887265 0 0 0 2.525294-0.887266 5.050589a2663.844195 2663.844195 0 0 0-21.294373 80.536411c-23.887919 89.818574-26.617967 99.100737-38.903182 116.9143-40.882467 57.60401-177.316608 55.965981-187.895544-2.525294-2.730048-12.762974 26.549715-159.298292 39.858699-199.156991 0-2.525294 70.844742-0.819014 70.844742 0.887265z m905.693376 0c40.745964 8.394897 53.235933 39.790447 34.535105 86.406015-18.564325 46.547316-58.423024 66.886172-128.448751 66.886172-21.294373 0-19.519842-3.344309-32.760574 60.197555-2.730048 11.875708-5.391845 22.864151-5.391845 24.570431-0.819014 4.231574-63.814869 4.231574-62.859352 0 53.167682-217.789568 57.60401-236.422144 57.60401-238.060173l0.819014-2.525294h63.88312c50.505885 0.819014 64.633883 0.819014 72.619273 2.525294zM606.343629 359.915859c8.872656 1.70628 15.015263 8.463148 15.015263 14.401003 0 21.157871-45.114041 35.627125-61.972086 19.519842-15.97078-16.107282 17.745311-40.677713 46.956823-33.920845z m-156.84125 16.107282c0 1.70628-0.955517 5.050589-0.955516 7.575883l-0.819015 3.41256 10.578936-5.050588c28.392498-13.581988 55.89773-11.056694 64.702134 5.937854 5.323593 10.169428 4.436328 16.107282-9.69167 78.76188-2.730048 11.056694-6.27911 26.276711-7.098124 33.920845-3.549062 16.994548-0.955517 16.107282-32.760575 16.107282-27.573483 0-27.573483 0-26.617966-2.525294 0-1.70628 3.549062-15.288268 7.029873-31.39555 14.196249-60.129304 15.083514-68.592452 2.730048-68.592453-7.098124 0-16.926297 4.163323-17.745311 6.756869-6.688617 28.665502-12.967727 57.535759-18.632577 86.406014l-1.774531 7.644134-27.436981 1.70628c-33.716091 0.887266-31.054294 3.41256-23.887919-25.457696 9.69167-37.265153 15.015263-63.541864 18.564326-87.225029 4.436328-25.457696 1.774531-22.932402 26.617966-26.276711 11.466201-1.70628 23.000653-3.41256 26.549716-4.231574 8.872656-2.525294 10.647187-1.70628 10.647186 2.525294z m420.905129-0.819014c0 1.638029-0.887266 5.050589-0.887266 7.575883l-0.887265 4.231574 10.647186-5.050588c54.942213-27.095725 76.236586-5.11884 60.265807 64.429129-3.549062 15.220017-7.98539 37.265153-10.647187 47.434581a84.290228 84.290228 0 0 1-5.323593 21.157871c-3.549062 3.41256-55.829479 2.525294-54.942213 0 0-1.70628 3.549062-15.220017 7.098124-30.508285 15.015263-61.835584 15.015263-69.479718 1.774531-69.479717-10.647187 0-15.97078 3.41256-17.745311 11.056693-6.483864 26.959223-12.353467 54.054948-17.745311 81.287175l-1.70628 9.350414-27.505232 0.887266c-33.64784 0.819014-30.986043 4.163323-23.068905-27.163976 8.872656-33.920845 15.083514-65.248144 19.519843-88.112295 3.549062-22.045136 0.887266-19.519842 23.068904-22.864151 9.759921-1.70628 22.181639-3.41256 26.617967-4.231574 8.872656-4.299825 11.466201-3.41256 11.466201 0z m537.887678-0.887265c3.617313 51.734407 4.504579 66.886172 4.504579 67.773438 0 0.887266 7.917139-12.694723 16.789795-29.62102 17.745311-33.920845 14.196249-30.508285 33.716091-33.033579a495.503686 495.503686 0 0 0 23.887918-4.231574c19.519842-3.41256 19.519842-5.11884-2.661796 32.146314C1454.432995 457.51507 1412.799765 527.813802 1397.784502 553.203247c-45.250543 78.761881-45.250543 78.761881-83.266459 79.649146l-23.068905 0.819015 1.774531-5.937854c0.887266-3.41256 3.549062-10.169428 4.368077-15.220017l2.730048-9.350414h7.029873c7.98539 0 9.759921-1.70628 16.858045-13.513737 2.730048-4.231574 7.098124-11.056694 8.872656-15.288268 2.661797-4.231574 11.534452-17.745311 18.564325-31.39555l14.196249-23.683165-3.549062-31.395551a1974.302358 1974.302358 0 0 0-12.353466-92.275617c-1.774531-11.943959-1.774531-11.943959 14.127997-13.650239 7.098124-0.819014 18.632577-3.344309 24.843436-4.163323 16.858046-5.050589 18.632577-5.050589 19.451591-3.41256z m-668.179212 0.887265c68.251196 11.807457 44.363278 125.377448-30.098778 141.48473-50.505885 10.988443-85.109242-7.644134-85.109242-44.909287 0.955517-65.248144 51.393151-107.632137 115.20802-96.575443z m510.518949 3.41256c3.480811 1.638029 8.872656 4.982337 11.466201 7.507631 4.436328 4.299825 4.436328 4.299825 4.436328 1.774532 0.887266-3.41256 0-3.41256 35.490622-8.463149 28.324247-4.231574 27.436981-4.231574 25.662449 3.41256-8.872656 36.309636-17.472306 72.755775-25.662449 109.270165-6.27911 30.508285-1.842782 27.095725-36.309637 26.276711h-29.348014v-3.41256c0-3.41256-1.70628-5.050589-3.480811-2.525294-9.759921 15.220017-57.60401 9.282163-70.912993-9.350414-32.760574-47.434581 37.196902-147.422584 88.590053-124.558433zM614.260768 403.187118s0 4.163323-0.887266 7.507631c-7.098124 27.163976-19.519842 82.242692-22.181639 92.41212l-2.661796 12.762974-29.211513 0.819014c-34.603357 0.887266-32.760574 2.525294-25.662449-17.813562 6.142608-19.519842 12.353467-43.203007 15.902528-68.592452 3.549062-22.045136 0-18.632577 25.66245-22.045137 11.602703-1.70628 23.95617-3.41256 26.617967-4.231574 7.098124-1.70628 11.534452-1.70628 12.421718-0.887266z m155.066718 175.405574a34.739859 34.739859 0 0 1-4.436328 8.463149c-1.774531 4.231574-4.368077 7.507632-4.368077 7.507631 52.212165 0.887266 53.986696 0.887266 53.099431 3.480811l-9.759921 30.508285h-76.236586l-4.368077 3.41256c-9.759921 8.463148-61.153072 19.451591-61.153072 12.694722l9.759921-30.576536h7.098125c12.353467 0 15.015263-2.525294 25.66245-20.270605l8.872655-16.107282c46.069558-0.887266 55.829479 0 55.829479 0.819014z m116.027034 0a52.758175 52.758175 0 0 1-2.593546 10.101177 37.196902 37.196902 0 0 0-2.730048 9.350414s4.504579-1.70628 9.828173-5.937854c19.451591-12.762974 36.309636-15.288268 85.996507-15.288268 19.451591 0 36.241385 0 37.196902 0.887266 0.887266 1.638029-28.392498 93.162883-32.760574 101.694282a43.95377 43.95377 0 0 1-22.181639 21.157871l-8.872656 3.41256-50.505885 0.819014-50.505885 0.819015-8.872656 28.870256c-17.745311 55.078715-17.745311 50.847141 7.98539 48.321847 20.338857-1.70628 19.451591-3.41256 13.240732 16.926297l-5.323593 16.926296h-25.66245c-55.829479 0.887266-62.927603-2.525294-57.60401-24.57043 2.661797-10.988443 66.476665-212.738979 67.363931-214.377008 0.887266-0.887266 46.069558-0.887266 46.069558 0.819014z m233.146087 0c0 0.750763-0.887266 3.344309-1.774532 6.756869-2.730048 8.463148-2.730048 8.463148 8.872656 2.525294 15.015263-7.644134 50.505885-10.237679 123.125158-10.237679h23.068905v10.237679c0 11.875708 0.887266 12.694723 11.534452 14.332751l7.98539 0.887266-4.436328 15.288268-4.436328 15.220017h-15.97078c-40.745964 0.887266-46.956823-3.41256-47.844088-26.20846v-11.056694l-2.730048 7.575883-2.593546 8.5314h-8.872655c-4.368077 0-8.872656 0-8.872656 0.819014l-49.61862 157.660264c-0.887266 1.638029 0 2.525294 5.323594 2.525294 7.98539 0 7.98539 0 5.323593 6.82512-2.730048 7.507632-2.730048 7.507632 6.142608 7.507631a24.843435 24.843435 0 0 0 14.2645-3.344308c6.142608-3.41256 6.142608-2.525294 34.535105-40.677713l11.602704-16.107283h-24.024422c-29.211512 0-26.617967 1.70628-21.294373-15.220017l4.436328-13.581988h58.559526c5.323593-17.745311 7.029873-22.864151 7.029874-23.683165 0-0.887266-12.353467-0.887266-28.324247-0.887265h-28.392498l4.436328-15.220017 4.504579-15.288268h79.717398c43.407761 0 79.785649 0 79.785648 0.887265 0 0.819014-1.842782 7.575883-4.436328 15.220017l-4.436327 14.469254-26.617967 0.819014-26.617967 0.819015c-4.368077 12.694723-6.142608 18.632577-7.098124 20.338856l-0.819014 3.41256h25.66245c30.167029 0 28.392498-1.70628 22.181638 15.220017l-4.436327 13.581988h-58.491276l-4.436327 5.050588-4.368077 5.11884h23.000653l3.549062 20.338857c3.480811 22.864151 3.480811 22.864151 15.015264 22.86415 8.872656 0 8.872656-1.70628 2.730047 18.632577l-5.391844 16.994548h-16.789794c-29.279763 0-34.603357-4.299825-39.92695-33.10183l-2.593546-18.632577-10.647186 13.581988c-29.279763 38.152419-31.054294 38.903182-68.251197 38.903182-23.887919 0-23.887919 0-20.407108-6.756868 0.887266-3.41256 0.887266-3.41256-6.142607-3.41256-7.098124 0-7.098124 0-8.872656 5.11884l-0.955516 5.118839h-49.550369l0.887265-2.525294c2.593545-8.5314 7.029873-7.644134-46.956823-7.644134-46.956823 0-49.686871 0-48.799605-2.525294l4.436328-15.288268c5.323593-15.288268 4.436328-15.288268 9.759921-15.288268 4.436328 0 4.436328 0 6.210859-5.869603 41.63323-133.089833 54.942213-175.405575 56.648493-181.343429l3.617313-11.056694h24.775184c15.97078 0 27.505232 0.887266 27.505233 1.70628z m-314.638016 72.824027l-9.759921 29.68927h-53.167682a224.478185 224.478185 0 0 1-7.98539 23.683165c-0.887266 2.525294 0.955517 2.525294 26.617967 2.525295 15.015263 0 27.505232 0.887266 27.505232 0.887265 0 0.819014-0.887266 2.525294-1.774531 5.050589a139.641948 139.641948 0 0 0-4.436328 15.288268l-3.549062 10.988442h-54.942213l-6.210859 20.338857c-8.872656 28.802005-7.98539 29.68927 25.66245 25.457696 14.196249-1.70628 13.308983-3.41256 7.098124 16.926297l-5.323593 16.926297h-37.196902c-58.491275 0-59.378541-1.638029-43.407761-49.959876 4.368077-15.288268 8.872656-27.982991 8.872655-27.982991s-6.210859-0.887266-15.083514-0.887265c-7.98539 0-15.015263 0-15.015263-0.819015 6.142608-21.157871 8.804404-27.982991 8.804404-29.621019 0.887266-1.70628 2.661797-2.525294 15.97078-2.525294h15.015263l7.166376-26.276711h-14.196249c-10.647187 0-14.196249 0-14.196249-1.70628s7.98539-26.276711 8.872656-28.870256c1.774531-1.638029 135.546876-0.819014 134.65961 0.887266z m171.993015 61.016569c0 1.70628-1.842782 6.82512-2.730048 10.988443-5.255342 23.751416-12.421718 28.802005-40.745964 30.508285l-18.632577 1.70628c-1.774531 2.525294-1.774531 22.864151 0 26.27671l2.730048 3.41256 17.745311-0.887265c9.69167-0.819014 17.67706-0.819014 17.67706-0.819015 0 1.70628-9.759921 31.39555-10.647187 32.214565-1.774531 1.70628-55.829479 0.819014-62.927603-1.70628-10.647187-3.41256-10.647187-2.525294-9.759921-55.965981l0.887266-46.547316h45.182292v17.745311h8.872655c9.759921 0 10.647187-0.819014 15.015264-12.694722l2.730047-6.82512h17.745312c15.902529 0.887266 17.745311 0.887266 16.858045 2.593545z m83.26646-362.618606l-9.759921 40.609462h13.308983c68.251196 1.70628 96.575443-73.711292 30.167029-78.761881-10.647187-0.819014-20.407108-1.70628-21.294374-1.70628-2.661797 0-2.661797 2.525294-12.421717 39.858699z m-352.653932 57.60401c-16.858046 6.82512-32.760574 67.773438-19.519842 77.123852 9.759921 7.575883 23.887919-5.11884 31.054294-26.276711 11.466201-39.039684 7.917139-57.60401-11.602703-50.847141z m528.127758 4.231574c-17.745311 8.463148-30.986043 68.592452-17.745311 75.417572 17.745311 9.282163 40.745964-22.932402 40.745964-57.672261 0-16.039031-9.69167-23.683165-23.000653-17.745311z m-358.045777 201.682285l-4.368076 15.220017c-2.730048 7.644134-4.436328 14.469254-5.323594 15.288268 0 0.819014 4.368077-0.887266 10.647187-4.231574 17.745311-8.463148 23.000653-10.237679 48.731354-11.056694l22.113388-0.819014c3.549062-10.237679 4.436328-14.469254 4.436328-15.288268 0.887266-0.819014-75.28107-0.819014-76.168335 0.887265z m-15.015263 49.140862l-3.549062 13.513737 76.236586-0.819015 4.368077-13.581988c-60.197555 0-77.123852 0-77.123852 0.887266z m240.994975-30.508285c-3.480811 10.988443-6.142608 19.519842-5.255343 19.519842l10.647187-3.41256c5.255342-1.70628 15.015263-4.231574 20.338857-5.050588 5.323593-0.887266 9.759921-1.774531 10.647186-1.774531 0 0 8.872656-26.208459 8.872656-27.027474 0 0-8.872656-0.887266-19.519842-0.887266h-19.451591l-6.27911 18.632577z m-14.127998 43.203007c0 0.819014-3.549062 9.350414-6.27911 19.519842-3.480811 10.169428-6.142608 19.519842-6.142608 19.519843 0 0.819014 4.436328-0.887266 10.647187-3.41256 6.142608-2.593545 15.015263-5.11884 20.338856-5.937854 11.602703-1.70628 12.421718-2.525294 13.377235-6.82512 0.819014-1.70628 2.593545-8.463148 4.368076-13.513737l3.549063-10.237679h-19.451591c-10.647187 0-20.475359 0-20.475359 0.887265z m-31.054294 97.462709l39.039684 0.819014c7.98539-25.389445 10.578935-33.852593 10.578935-34.739859l-38.971433-1.638029-10.647186 35.490622z" fill="#FFFFFF" p-id="7169"></path></svg>