<?xml version="1.0" standalone="no"?><!DOCTYPE svg PUBLIC "-//W3C//DTD SVG 1.1//EN" "http://www.w3.org/Graphics/SVG/1.1/DTD/svg11.dtd"><svg t="1597387293135" class="icon" viewBox="0 0 1024 1024" version="1.1" xmlns="http://www.w3.org/2000/svg" p-id="3564" xmlns:xlink="http://www.w3.org/1999/xlink" width="200" height="200"><defs><style type="text/css"></style></defs><path d="M1023.8976 512c5.12 317.7984-194.0992 516.8128-511.8976 511.8976C194.2016 1028.8128-4.8128 829.7984 0.1024 512-4.8128 194.2016 194.2016-4.8128 512 0.1024 829.7984-4.8128 1028.8128 194.2016 1023.8976 512z" fill="#6DADFF" p-id="3565"></path><path d="M1022.464 566.6816C1006.8992 340.3776 852.3264 201.1648 614.4 204.8 360.2944 200.7552 200.704 360.2944 204.8 614.4c-3.8912 237.9264 135.5776 392.4992 361.6256 408.064 268.032-16.384 439.6032-187.9552 455.9872-455.7824z" fill="#509CFF" p-id="3566"></path><path d="M1015.5008 629.9648C985.8048 491.52 876.544 407.1424 716.8 409.6 526.1312 406.528 406.528 526.1312 409.6 716.8c-2.4576 159.6928 81.92 269.0048 220.16 298.7008 211.0976-34.4064 351.3344-174.6432 385.7408-385.536z" fill="#398FFF" p-id="3567"></path><path d="M997.6832 705.6896C964.7104 646.7584 902.144 613.1712 819.2 614.4c-127.1808-2.048-206.848 77.568-204.8 204.7488-1.3824 82.944 32.4096 145.5616 91.136 178.5344a431.2576 431.2576 0 0 0 292.1984-291.9936z" fill="#2483FE" p-id="3568"></path><path d="M307.2 409.6a51.2 51.2 0 0 1 51.2 51.2v235.52H256V460.8a51.2 51.2 0 0 1 51.2-51.2z m204.8-102.4a51.2 51.2 0 0 1 51.2 51.2v337.92H460.8V358.4a51.2 51.2 0 0 1 51.2-51.2z m204.8-102.3488a51.2 51.2 0 0 1 51.2 51.2v440.2176h-102.4V256.0512a51.2 51.2 0 0 1 51.2-51.2z" fill="#253B5B" p-id="3569"></path><path d="M194.6112 675.84H829.44c20.48 0 30.72 10.24 30.72 30.72 0 20.48-10.24 30.72-30.72 30.72H194.56c-20.48 0-30.72-10.24-30.72-30.72 0-20.48 10.24-30.72 30.72-30.72z" fill="#E4F0FF" p-id="3570"></path></svg>